<?xml version="1.0" encoding="UTF-8"?>
<svg xmlns="http://www.w3.org/2000/svg" width="186" height="40" viewBox="0 0 186 40" fill="none">
  <path d="M64.8676 8.74308C62.3616 2.91163 59.4448 0 56.1008 0H53.6113C50.2755 0 47.3423 2.91163 44.8281 8.74308L31.0576 40H43.5957L54.8437 14.2875L59.5681 24.999H54.5315L50.1522 35.0051H63.9474L66.1247 40H78.6874L64.8676 8.74308Z" fill="#CE373F"></path>
  <path d="M113.993 18.659C111.544 16.2231 108.603 15.001 105.144 15.001H90.1162C89.426 15.001 88.8344 14.755 88.3414 14.2547C87.8402 13.7626 87.5938 13.172 87.5938 12.4831C87.5938 11.8105 87.8402 11.2364 88.3414 10.7361C88.8344 10.244 89.426 9.98975 90.1162 9.98975H105.579L109.958 0H90.1162C86.6407 0 83.6828 1.22206 81.2426 3.65799C78.8023 6.09391 77.5781 9.03834 77.5781 12.4913C77.5781 15.9524 78.8023 18.9133 81.2426 21.3492C83.6828 23.7851 86.6407 25.0072 90.1162 25.0072H105.144C105.809 25.0072 106.393 25.2532 106.894 25.7535C107.387 26.2456 107.633 26.828 107.633 27.5005C107.633 28.1813 107.387 28.78 106.894 29.2721C106.393 29.7642 105.817 30.0185 105.144 30.0185H82.9105L78.5723 40.0164H105.144C108.603 40.0164 111.544 38.8025 113.993 36.3584C116.433 33.9225 117.657 30.9699 117.657 27.5005C117.657 24.0394 116.433 21.0949 113.993 18.659Z" fill="#CE373F"></path>
  <path d="M172.197 8.74308C169.699 2.91163 166.782 0 163.438 0H160.949C157.605 0 154.68 2.91163 152.157 8.74308L138.387 40H150.925L162.173 14.2875L166.897 24.999H161.861L157.481 35.0051H171.276L173.454 40H185.992L172.197 8.74308Z" fill="#CE373F"></path>
  <path d="M117.829 0H113.121L108.742 9.99795H125.659V40H135.683V9.99795H148.189L152.806 0H117.829Z" fill="#CE373F"></path>
  <path d="M5.86642 5.85606C1.95547 9.7601 0 14.4761 0 20.0041C0 25.5321 1.95547 30.2481 5.86642 34.1521C9.77737 38.0562 14.5017 40.0082 20.0395 40.0082H27.7546L32.4871 30.0103H20.0395C17.2706 30.0103 14.9125 29.0342 12.9571 27.0822C11.0016 25.1302 10.0239 22.7681 10.0239 20.0041C10.0239 17.2401 11.0016 14.8862 12.9571 12.9342C14.9125 10.9822 17.2788 10.0062 20.0395 10.0062H40.079L44.6226 0H20.0395C14.5017 0 9.77737 1.95202 5.86642 5.85606Z" fill="#CE373F"></path>
</svg>
